<svg xmlns="http://www.w3.org/2000/svg" style="display: none;">

  <symbol id="icon-facebook" viewBox="0 0 512 512">
    <path d="M512,257.555c0,-141.385 -114.615,-256 -256,-256c-141.385,0 -256,114.615 -256,256c0,127.777 93.616,233.685 216,252.89l0,-178.89l-65,0l0,-74l65,0l0,-56.4c0,-64.16 38.219,-99.6 96.695,-99.6c28.009,0 57.305,5 57.305,5l0,63l-32.281,0c-31.801,0 -41.719,19.733 -41.719,39.978l0,48.022l71,0l-11.35,74l-59.65,0l0,178.89c122.385,-19.205 216,-125.113 216,-252.89Z" />
  </symbol>

  <symbol id="icon-instagram" viewBox="0 0 512 512">
    <path d="M449.446,0c34.525,0 62.554,28.03 62.554,62.554l0,386.892c0,34.524 -28.03,62.554 -62.554,62.554l-386.892,0c-34.524,0 -62.554,-28.03 -62.554,-62.554l0,-386.892c0,-34.524 28.029,-62.554 62.554,-62.554l386.892,0Zm-193.446,81c-47.527,0 -53.487,0.201 -72.152,1.053c-18.627,0.85 -31.348,3.808 -42.48,8.135c-11.508,4.472 -21.267,10.456 -30.996,20.184c-9.729,9.729 -15.713,19.489 -20.185,30.996c-4.326,11.132 -7.284,23.853 -8.135,42.48c-0.851,18.665 -1.052,24.625 -1.052,72.152c0,47.527 0.201,53.487 1.052,72.152c0.851,18.627 3.809,31.348 8.135,42.48c4.472,11.507 10.456,21.267 20.185,30.996c9.729,9.729 19.488,15.713 30.996,20.185c11.132,4.326 23.853,7.284 42.48,8.134c18.665,0.852 24.625,1.053 72.152,1.053c47.527,0 53.487,-0.201 72.152,-1.053c18.627,-0.85 31.348,-3.808 42.48,-8.134c11.507,-4.472 21.267,-10.456 30.996,-20.185c9.729,-9.729 15.713,-19.489 20.185,-30.996c4.326,-11.132 7.284,-23.853 8.134,-42.48c0.852,-18.665 1.053,-24.625 1.053,-72.152c0,-47.527 -0.201,-53.487 -1.053,-72.152c-0.85,-18.627 -3.808,-31.348 -8.134,-42.48c-4.472,-11.507 -10.456,-21.267 -20.185,-30.996c-9.729,-9.728 -19.489,-15.712 -30.996,-20.184c-11.132,-4.327 -23.853,-7.285 -42.48,-8.135c-18.665,-0.852 -24.625,-1.053 -72.152,-1.053Zm0,31.532c46.727,0 52.262,0.178 70.715,1.02c17.062,0.779 26.328,3.63 32.495,6.025c8.169,3.175 13.998,6.968 20.122,13.091c6.124,6.124 9.916,11.954 13.091,20.122c2.396,6.167 5.247,15.433 6.025,32.495c0.842,18.453 1.021,23.988 1.021,70.715c0,46.727 -0.179,52.262 -1.021,70.715c-0.778,17.062 -3.629,26.328 -6.025,32.495c-3.175,8.169 -6.967,13.998 -13.091,20.122c-6.124,6.124 -11.953,9.916 -20.122,13.091c-6.167,2.396 -15.433,5.247 -32.495,6.025c-18.45,0.842 -23.985,1.021 -70.715,1.021c-46.73,0 -52.264,-0.179 -70.715,-1.021c-17.062,-0.778 -26.328,-3.629 -32.495,-6.025c-8.169,-3.175 -13.998,-6.967 -20.122,-13.091c-6.124,-6.124 -9.917,-11.953 -13.091,-20.122c-2.396,-6.167 -5.247,-15.433 -6.026,-32.495c-0.842,-18.453 -1.02,-23.988 -1.02,-70.715c0,-46.727 0.178,-52.262 1.02,-70.715c0.779,-17.062 3.63,-26.328 6.026,-32.495c3.174,-8.168 6.967,-13.998 13.091,-20.122c6.124,-6.123 11.953,-9.916 20.122,-13.091c6.167,-2.395 15.433,-5.246 32.495,-6.025c18.453,-0.842 23.988,-1.02 70.715,-1.02Zm0,53.603c-49.631,0 -89.865,40.234 -89.865,89.865c0,49.631 40.234,89.865 89.865,89.865c49.631,0 89.865,-40.234 89.865,-89.865c0,-49.631 -40.234,-89.865 -89.865,-89.865Zm0,148.198c-32.217,0 -58.333,-26.116 -58.333,-58.333c0,-32.217 26.116,-58.333 58.333,-58.333c32.217,0 58.333,26.116 58.333,58.333c0,32.217 -26.116,58.333 -58.333,58.333Zm114.416,-151.748c0,11.598 -9.403,20.999 -21.001,20.999c-11.597,0 -20.999,-9.401 -20.999,-20.999c0,-11.598 9.402,-21 20.999,-21c11.598,0 21.001,9.402 21.001,21Z" />
  </symbol>

  <symbol id="icon-pinterest" viewBox="0 0 512 512">
    <path d="M255.998,0.001c-141.384,0 -255.998,114.617 -255.998,255.998c0,108.456 67.475,201.171 162.707,238.471c-2.24,-20.255 -4.261,-51.405 0.889,-73.518c4.65,-19.978 30.018,-127.248 30.018,-127.248c0,0 -7.659,-15.334 -7.659,-38.008c0,-35.596 20.632,-62.171 46.323,-62.171c21.839,0 32.391,16.399 32.391,36.061c0,21.966 -13.984,54.803 -21.203,85.235c-6.03,25.482 12.779,46.261 37.909,46.261c45.503,0 80.477,-47.976 80.477,-117.229c0,-61.293 -44.045,-104.149 -106.932,-104.149c-72.841,0 -115.597,54.634 -115.597,111.095c0,22.004 8.475,45.596 19.052,58.421c2.09,2.535 2.398,4.758 1.776,7.343c-1.945,8.087 -6.262,25.474 -7.111,29.032c-1.117,4.686 -3.711,5.681 -8.561,3.424c-31.974,-14.884 -51.963,-61.627 -51.963,-99.174c0,-80.755 58.672,-154.915 169.148,-154.915c88.806,0 157.821,63.279 157.821,147.85c0,88.229 -55.629,159.232 -132.842,159.232c-25.94,0 -50.328,-13.476 -58.674,-29.394c0,0 -12.838,48.878 -15.95,60.856c-5.782,22.237 -21.382,50.109 -31.818,67.11c23.955,7.417 49.409,11.416 75.797,11.416c141.389,0 256.003,-114.612 256.003,-256.001c0,-141.381 -114.614,-255.998 -256.003,-255.998Z" />
  </symbol>

  <symbol id="icon-youtube" viewBox="0 0 512 512">
    <path d="M501.303,132.765c-5.887,-22.03 -23.235,-39.377 -45.265,-45.265c-39.932,-10.7 -200.038,-10.7 -200.038,-10.7c0,0 -160.107,0 -200.039,10.7c-22.026,5.888 -39.377,23.235 -45.264,45.265c-10.697,39.928 -10.697,123.238 -10.697,123.238c0,0 0,83.308 10.697,123.232c5.887,22.03 23.238,39.382 45.264,45.269c39.932,10.696 200.039,10.696 200.039,10.696c0,0 160.106,0 200.038,-10.696c22.03,-5.887 39.378,-23.239 45.265,-45.269c10.696,-39.924 10.696,-123.232 10.696,-123.232c0,0 0,-83.31 -10.696,-123.238Zm-296.506,200.039l0,-153.603l133.019,76.802l-133.019,76.801Z" />
  </symbol>

</svg>